Wallingford.ufo
<glyph name="exclam" format="2">
	<unicode hex="0021"/>
	<advance width="160"/>
	<outline>
		<contour>
			<point x="74" y="-10" type="curve" smooth="yes"/>
			<point x="123" y="-10"/>
			<point x="129" y="8"/>
			<point x="129" y="37" type="curve" smooth="yes"/>
			<point x="129" y="72"/>
			<point x="119" y="96"/>
			<point x="75" y="96" type="curve" smooth="yes"/>
			<point x="31" y="96"/>
			<point x="21" y="76"/>
			<point x="21" y="53" type="curve" smooth="yes"/>
			<point x="21" y="6"/>
			<point x="27" y="-10"/>
		</contour>
		<contour>
			<point x="76" y="700" type="curve" smooth="yes"/>
			<point x="17" y="700"/>
			<point x="3" y="646"/>
			<point x="3" y="615" type="curve" smooth="yes"/>
			<point x="3" y="529"/>
			<point x="40" y="405"/>
			<point x="44" y="166" type="curve" smooth="yes"/>
			<point x="44" y="146"/>
			<point x="52" y="130"/>
			<point x="74" y="130" type="curve" smooth="yes"/>
			<point x="96" y="130"/>
			<point x="111" y="147"/>
			<point x="111" y="167" type="curve" smooth="yes"/>
			<point x="114" y="407"/>
			<point x="157" y="532"/>
			<point x="157" y="615" type="curve" smooth="yes"/>
			<point x="157" y="665"/>
			<point x="131" y="700"/>
		</contour>
	</outline>
</glyph>
<glyph name="A" format="2">
	<unicode hex="0041"/>
	<outline>
		<contour>
			<point x="-23" y="28" type="curve" smooth="yes"/>
			<point x="-21" y="-6"/>
			<point x="-10" y="-9"/>
			<point x="8" y="-8" type="curve" smooth="yes"/>
			<point x="26" y="-7"/>
			<point x="93" y="-6"/>
			<point x="93" y="10" type="curve" smooth="yes"/>
			<point x="93" y="26"/>
			<point x="54" y="26"/>
			<point x="50" y="37" type="curve" smooth="yes"/>
			<point x="46" y="48"/>
			<point x="60" y="99"/>
			<point x="69" y="105" type="curve" smooth="yes"/>
			<point x="78" y="111"/>
			<point x="175" y="134"/>
			<point x="188" y="117" type="curve" smooth="yes"/>
			<point x="201" y="100"/>
			<point x="228" y="69"/>
			<point x="231" y="46" type="curve" smooth="yes"/>
			<point x="234" y="23"/>
			<point x="214" y="18"/>
			<point x="215" y="5" type="curve" smooth="yes"/>
			<point x="216" y="-8"/>
			<point x="230" y="-15"/>
			<point x="245" y="-15" type="curve" smooth="yes"/>
			<point x="260" y="-15"/>
			<point x="340" y="-4"/>
			<point x="366" y="-4" type="curve" smooth="yes"/>
			<point x="392" y="-4"/>
			<point x="435" y="-21"/>
			<point x="445" y="-23" type="curve" smooth="yes"/>
			<point x="455" y="-25"/>
			<point x="475" y="-29"/>
			<point x="475" y="-17" type="curve" smooth="yes"/>
			<point x="475" y="-5"/>
			<point x="454" y="20"/>
			<point x="450" y="35" type="curve" smooth="yes"/>
			<point x="446" y="50"/>
			<point x="297" y="679"/>
			<point x="286" y="686" type="curve" smooth="yes"/>
			<point x="275" y="693"/>
			<point x="63" y="699"/>
			<point x="53" y="692" type="curve" smooth="yes"/>
			<point x="43" y="685"/>
			<point x="29" y="655"/>
			<point x="33" y="648" type="curve" smooth="yes"/>
			<point x="37" y="641"/>
			<point x="77" y="626"/>
			<point x="81" y="616" type="curve" smooth="yes"/>
			<point x="85" y="606"/>
			<point x="67" y="413"/>
			<point x="55" y="383" type="curve" smooth="yes"/>
			<point x="36" y="305"/>
			<point x="-32" y="108"/>
		</contour>
		<contour>
			<point x="131" y="314" type="curve"/>
			<point x="174" y="529" type="line" smooth="yes"/>
			<point x="189" y="521"/>
			<point x="233" y="311"/>
			<point x="227" y="303" type="curve" smooth="yes"/>
			<point x="221" y="295"/>
			<point x="171" y="295"/>
			<point x="155" y="296" type="curve" smooth="yes"/>
			<point x="139" y="297"/>
			<point x="130" y="301"/>
		</contour>
	</outline>
</glyph>
<glyph name="B" format="2">
	<unicode hex="0042"/>
	<outline>
		<contour>
			<point x="16" y="54" type="line"/>
			<point x="14" y="41"/>
			<point x="20" y="-10"/>
			<point x="37" y="-12" type="curve" smooth="yes"/>
			<point x="54" y="-14"/>
			<point x="209" y="-7"/>
			<point x="221" y="-8" type="curve" smooth="yes"/>
			<point x="233" y="-9"/>
			<point x="287" y="-9"/>
			<point x="317" y="-9" type="curve" smooth="yes"/>
			<point x="347" y="-9"/>
			<point x="403" y="112"/>
			<point x="393" y="154" type="curve" smooth="yes"/>
			<point x="383" y="196"/>
			<point x="346" y="314"/>
			<point x="323" y="332" type="curve" smooth="yes"/>
			<point x="300" y="350"/>
			<point x="309" y="369"/>
			<point x="316" y="383" type="curve" smooth="yes"/>
			<point x="323" y="397"/>
			<point x="366" y="456"/>
			<point x="370" y="502" type="curve" smooth="yes"/>
			<point x="374" y="548"/>
			<point x="278" y="688"/>
			<point x="236" y="689" type="curve" smooth="yes"/>
			<point x="194" y="690"/>
			<point x="57" y="708"/>
			<point x="17" y="707" type="curve" smooth="yes"/>
			<point x="6" y="707"/>
			<point x="-9" y="655"/>
			<point x="-2" y="628" type="curve" smooth="yes"/>
			<point x="5" y="601"/>
			<point x="34" y="351"/>
			<point x="37" y="297" type="curve" smooth="yes"/>
		</contour>
		<contour>
			<point x="110" y="433" type="curve"/>
			<point x="119" y="535" type="line" smooth="yes"/>
			<point x="117" y="547"/>
			<point x="98" y="645"/>
			<point x="97" y="662" type="curve" smooth="yes"/>
			<point x="96" y="679"/>
			<point x="116" y="670"/>
			<point x="130" y="665" type="curve" smooth="yes"/>
			<point x="144" y="660"/>
			<point x="190" y="587"/>
			<point x="194" y="531" type="curve" smooth="yes"/>
			<point x="198" y="475"/>
			<point x="149" y="415"/>
			<point x="142" y="416" type="curve" smooth="yes"/>
			<point x="135" y="417"/>
			<point x="108" y="416"/>
		</contour>
		<contour>
			<point x="85" y="84" type="curve"/>
			<point x="112" y="162" type="line" smooth="yes"/>
			<point x="117" y="178"/>
			<point x="110" y="283"/>
			<point x="111" y="295" type="curve" smooth="yes"/>
			<point x="112" y="307"/>
			<point x="116" y="311"/>
			<point x="143" y="301" type="curve" smooth="yes"/>
			<point x="170" y="291"/>
			<point x="175" y="248"/>
			<point x="174" y="212" type="curve" smooth="yes"/>
			<point x="173" y="176"/>
			<point x="127" y="64"/>
			<point x="117" y="62" type="curve" smooth="yes"/>
			<point x="107" y="60"/>
			<point x="88" y="70"/>
		</contour>
	</outline>
</glyph>
<glyph name="C" format="2">
  <unicode hex="0043"/>
  <outline>
    <contour>
      <point x="180" y="-19" type="curve" smooth="yes"/>
      <point x="344" y="-19"/>
      <point x="361" y="92"/>
      <point x="361" y="151" type="curve" smooth="yes"/>
      <point x="361" y="197"/>
      <point x="341" y="223"/>
      <point x="321" y="218" type="curve" smooth="yes"/>
      <point x="301" y="213"/>
      <point x="275" y="185"/>
      <point x="280" y="168" type="curve" smooth="yes"/>
      <point x="285" y="151"/>
      <point x="304" y="150"/>
      <point x="304" y="138" type="curve" smooth="yes"/>
      <point x="304" y="67"/>
      <point x="273" y="40"/>
      <point x="211" y="39" type="curve" smooth="yes"/>
      <point x="191" y="39"/>
      <point x="176" y="66"/>
      <point x="170" y="313" type="curve" smooth="yes"/>
      <point x="164" y="560"/>
      <point x="184" y="616"/>
      <point x="201" y="605" type="curve" smooth="yes"/>
      <point x="218" y="594"/>
      <point x="231" y="533"/>
      <point x="252" y="527" type="curve" smooth="yes"/>
      <point x="273" y="521"/>
      <point x="314" y="516"/>
      <point x="312" y="540" type="curve" smooth="yes"/>
      <point x="310" y="564"/>
      <point x="287" y="605"/>
      <point x="282" y="626" type="curve" smooth="yes"/>
      <point x="277" y="647"/>
      <point x="291" y="704"/>
      <point x="261" y="711" type="curve" smooth="yes"/>
      <point x="231" y="718"/>
      <point x="227" y="674"/>
      <point x="212" y="675" type="curve" smooth="yes"/>
      <point x="197" y="676"/>
      <point x="181" y="711"/>
      <point x="163" y="711" type="curve" smooth="yes"/>
      <point x="145" y="711"/>
      <point x="16" y="671"/>
      <point x="13" y="361" type="curve" smooth="yes"/>
      <point x="11" y="201"/>
      <point x="34" y="-19"/>
    </contour>
  </outline>
</glyph>
<glyph name="D" format="2">
	<unicode hex="0044"/>
	<outline>
		<contour>
			<point x="10" y="22" type="curve"/>
			<point x="8" y="4"/>
			<point x="21" y="-3"/>
			<point x="32" y="-6" type="curve" smooth="yes"/>
			<point x="43" y="-9"/>
			<point x="56" y="6"/>
			<point x="83" y="3" type="curve" smooth="yes"/>
			<point x="120" y="-1"/>
			<point x="137" y="-10"/>
			<point x="160" y="-13" type="curve" smooth="yes"/>
			<point x="183" y="-16"/>
			<point x="388" y="51"/>
			<point x="381" y="320" type="curve" smooth="yes"/>
			<point x="377" y="478"/>
			<point x="295" y="705"/>
			<point x="170" y="706" type="curve" smooth="yes"/>
			<point x="144" y="706"/>
			<point x="115" y="695"/>
			<point x="96" y="695" type="curve" smooth="yes"/>
			<point x="77" y="695"/>
			<point x="58" y="711"/>
			<point x="38" y="712" type="curve" smooth="yes"/>
			<point x="18" y="713"/>
			<point x="-11" y="711"/>
			<point x="-10" y="692" type="curve" smooth="yes"/>
			<point x="-9" y="673"/>
			<point x="21" y="664"/>
			<point x="20" y="646" type="curve" smooth="yes"/>
			<point x="19" y="628"/>
			<point x="18" y="429"/>
			<point x="18" y="349" type="curve" smooth="yes"/>
			<point x="18" y="173"/>
			<point x="10" y="58"/>
		</contour>
		<contour>
			<point x="99" y="69" type="curve"/>
			<point x="94" y="168"/>
			<point x="89" y="268"/>
			<point x="84" y="367" type="curve" smooth="yes"/>
			<point x="86" y="399"/>
			<point x="85" y="597"/>
			<point x="84" y="613" type="curve" smooth="yes"/>
			<point x="83" y="629"/>
			<point x="80" y="651"/>
			<point x="91" y="656" type="curve" smooth="yes"/>
			<point x="102" y="661"/>
			<point x="114" y="645"/>
			<point x="132" y="633" type="curve" smooth="yes"/>
			<point x="150" y="621"/>
			<point x="170" y="486"/>
			<point x="170" y="356" type="curve" smooth="yes"/>
			<point x="170" y="236"/>
			<point x="154" y="91"/>
			<point x="150" y="77" type="curve" smooth="yes"/>
			<point x="146" y="63"/>
			<point x="126" y="56"/>
			<point x="116" y="59" type="curve" smooth="yes"/>
			<point x="106" y="62"/>
			<point x="97" y="64"/>
		</contour>
	</outline>
</glyph>
<glyph name="E" format="2">
  <unicode hex="0045"/>
  <outline>
    <contour>
      <point x="10" y="36" type="curve"/>
      <point x="11" y="32"/>
      <point x="10" y="-3"/>
      <point x="29" y="-5" type="curve" smooth="yes"/>
      <point x="48" y="-7"/>
      <point x="223" y="16"/>
      <point x="251" y="12" type="curve" smooth="yes"/>
      <point x="279" y="8"/>
      <point x="389" y="-12"/>
      <point x="411" y="-9" type="curve" smooth="yes"/>
      <point x="433" y="-6"/>
      <point x="437" y="6"/>
      <point x="447" y="17" type="curve" smooth="yes"/>
      <point x="457" y="28"/>
      <point x="478" y="168"/>
      <point x="465" y="181" type="curve" smooth="yes"/>
      <point x="452" y="194"/>
      <point x="445" y="194"/>
      <point x="431" y="194" type="curve" smooth="yes"/>
      <point x="417" y="194"/>
      <point x="388" y="65"/>
      <point x="367" y="56" type="curve" smooth="yes"/>
      <point x="346" y="47"/>
      <point x="277" y="50"/>
      <point x="262" y="51" type="curve" smooth="yes"/>
      <point x="247" y="52"/>
      <point x="209" y="68"/>
      <point x="209" y="84" type="curve" smooth="yes"/>
      <point x="209" y="100"/>
      <point x="199" y="267"/>
      <point x="203" y="283" type="curve" smooth="yes"/>
      <point x="207" y="299"/>
      <point x="243" y="328"/>
      <point x="261" y="326" type="curve" smooth="yes"/>
      <point x="279" y="324"/>
      <point x="338" y="291"/>
      <point x="365" y="289" type="curve" smooth="yes"/>
      <point x="392" y="287"/>
      <point x="414" y="300"/>
      <point x="405" y="338" type="curve" smooth="yes"/>
      <point x="396" y="376"/>
      <point x="401" y="459"/>
      <point x="375" y="463" type="curve" smooth="yes"/>
      <point x="349" y="467"/>
      <point x="312" y="372"/>
      <point x="287" y="376" type="curve" smooth="yes"/>
      <point x="262" y="380"/>
      <point x="198" y="367"/>
      <point x="191" y="403" type="curve" smooth="yes"/>
      <point x="184" y="439"/>
      <point x="173" y="601"/>
      <point x="178" y="627" type="curve" smooth="yes"/>
      <point x="183" y="653"/>
      <point x="231" y="657"/>
      <point x="248" y="649" type="curve" smooth="yes"/>
      <point x="265" y="641"/>
      <point x="332" y="540"/>
      <point x="364" y="540" type="curve" smooth="yes"/>
      <point x="396" y="540"/>
      <point x="408" y="538"/>
      <point x="402" y="559" type="curve" smooth="yes"/>
      <point x="396" y="580"/>
      <point x="393" y="607"/>
      <point x="390" y="632" type="curve" smooth="yes"/>
      <point x="387" y="657"/>
      <point x="406" y="697"/>
      <point x="403" y="715" type="curve" smooth="yes"/>
      <point x="400" y="733"/>
      <point x="379" y="750"/>
      <point x="348" y="737" type="curve" smooth="yes"/>
      <point x="317" y="724"/>
      <point x="256" y="708"/>
      <point x="201" y="713" type="curve" smooth="yes"/>
      <point x="146" y="718"/>
      <point x="34" y="744"/>
      <point x="22" y="740" type="curve" smooth="yes"/>
      <point x="10" y="736"/>
      <point x="9" y="696"/>
      <point x="9" y="680" type="curve" smooth="yes"/>
      <point x="9" y="594"/>
      <point x="36" y="353"/>
      <point x="36" y="313" type="curve" smooth="yes"/>
      <point x="35" y="142"/>
      <point x="12" y="88"/>
    </contour>
  </outline>
</glyph>
<glyph name="F" format="2">
  <unicode hex="0046"/>
  <outline>
    <contour>
      <point x="18" y="21" type="curve" smooth="yes"/>
      <point x="17" y="2"/>
      <point x="31" y="-6"/>
      <point x="49" y="-7" type="curve" smooth="yes"/>
      <point x="67" y="-8"/>
      <point x="123" y="17"/>
      <point x="145" y="16" type="curve" smooth="yes"/>
      <point x="167" y="15"/>
      <point x="212" y="-7"/>
      <point x="228" y="-6" type="curve" smooth="yes"/>
      <point x="244" y="-5"/>
      <point x="257" y="3"/>
      <point x="257" y="10" type="curve" smooth="yes"/>
      <point x="257" y="17"/>
      <point x="229" y="31"/>
      <point x="227" y="43" type="curve" smooth="yes"/>
      <point x="225" y="55"/>
      <point x="211" y="221"/>
      <point x="211" y="260" type="curve" smooth="yes"/>
      <point x="211" y="299"/>
      <point x="214" y="368"/>
      <point x="220" y="380" type="curve" smooth="yes"/>
      <point x="226" y="392"/>
      <point x="239" y="406"/>
      <point x="248" y="406" type="curve" smooth="yes"/>
      <point x="257" y="406"/>
      <point x="273" y="367"/>
      <point x="285" y="368" type="curve" smooth="yes"/>
      <point x="297" y="369"/>
      <point x="318" y="367"/>
      <point x="317" y="377" type="curve" smooth="yes"/>
      <point x="316" y="387"/>
      <point x="272" y="497"/>
      <point x="252" y="499" type="curve" smooth="yes"/>
      <point x="232" y="501"/>
      <point x="221" y="461"/>
      <point x="204" y="461" type="curve" smooth="yes"/>
      <point x="187" y="461"/>
      <point x="176" y="480"/>
      <point x="174" y="491" type="curve" smooth="yes"/>
      <point x="172" y="502"/>
      <point x="163" y="541"/>
      <point x="163" y="568" type="curve" smooth="yes"/>
      <point x="163" y="595"/>
      <point x="172" y="616"/>
      <point x="179" y="622" type="curve" smooth="yes"/>
      <point x="186" y="628"/>
      <point x="207" y="623"/>
      <point x="213" y="623" type="curve" smooth="yes"/>
      <point x="219" y="623"/>
      <point x="245" y="578"/>
      <point x="273" y="576" type="curve" smooth="yes"/>
      <point x="301" y="574"/>
      <point x="325" y="574"/>
      <point x="324" y="591" type="curve" smooth="yes"/>
      <point x="323" y="608"/>
      <point x="293" y="704"/>
      <point x="273" y="703" type="curve" smooth="yes"/>
      <point x="253" y="702"/>
      <point x="203" y="698"/>
      <point x="182" y="694" type="curve" smooth="yes"/>
      <point x="161" y="690"/>
      <point x="74" y="700"/>
      <point x="41" y="700" type="curve" smooth="yes"/>
      <point x="25" y="700"/>
      <point x="12" y="680"/>
      <point x="12" y="668" type="curve" smooth="yes"/>
      <point x="12" y="658"/>
      <point x="22" y="642"/>
      <point x="29" y="610" type="curve" smooth="yes"/>
      <point x="39" y="560"/>
      <point x="51" y="499"/>
      <point x="51" y="334" type="curve" smooth="yes"/>
      <point x="51" y="191"/>
      <point x="24" y="126"/>
    </contour>
  </outline>
</glyph>
<glyph name="I" format="2">
  <advance width="250"/>
  <unicode hex="0049"/>
  <outline>
    <contour>
      <point x="10" y="14" type="curve" smooth="yes"/>
      <point x="10" y="-3"/>
      <point x="19" y="-10"/>
      <point x="30" y="-10" type="curve" smooth="yes"/>
      <point x="50" y="-10"/>
      <point x="86" y="10"/>
      <point x="125" y="10" type="curve" smooth="yes"/>
      <point x="165" y="10"/>
      <point x="208" y="-10"/>
      <point x="219" y="-10" type="curve" smooth="yes"/>
      <point x="232" y="-10"/>
      <point x="246" y="1"/>
      <point x="245" y="8" type="curve" smooth="yes"/>
      <point x="244" y="15"/>
      <point x="224" y="37"/>
      <point x="218" y="51" type="curve" smooth="yes"/>
      <point x="212" y="65"/>
      <point x="195" y="353"/>
      <point x="197" y="382" type="curve" smooth="yes"/>
      <point x="199" y="411"/>
      <point x="209" y="631"/>
      <point x="217" y="642" type="curve" smooth="yes"/>
      <point x="225" y="653"/>
      <point x="265" y="661"/>
      <point x="265" y="670" type="curve" smooth="yes"/>
      <point x="265" y="679"/>
      <point x="234" y="700"/>
      <point x="222" y="698" type="curve" smooth="yes"/>
      <point x="210" y="696"/>
      <point x="137" y="682"/>
      <point x="126" y="683" type="curve" smooth="yes"/>
      <point x="115" y="684"/>
      <point x="32" y="699"/>
      <point x="23" y="698" type="curve" smooth="yes"/>
      <point x="14" y="697"/>
      <point x="-14" y="694"/>
      <point x="-12" y="681" type="curve" smooth="yes"/>
      <point x="-10" y="668"/>
      <point x="12" y="660"/>
      <point x="20" y="648" type="curve" smooth="yes"/>
      <point x="28" y="636"/>
      <point x="58" y="405"/>
      <point x="58" y="383" type="curve" smooth="yes"/>
      <point x="58" y="361"/>
      <point x="34" y="59"/>
      <point x="32" y="48" type="curve" smooth="yes"/>
      <point x="30" y="37"/>
      <point x="10" y="30"/>
    </contour>
  </outline>
</glyph>
<glyph name="L" format="2">
  <advance width="350"/>
  <unicode hex="004C"/>
  <outline>
    <contour>
      <point x="10" y="20" type="curve" smooth="yes"/>
      <point x="10" y="41"/>
      <point x="20" y="64"/>
      <point x="20" y="377" type="curve" smooth="yes"/>
      <point x="20" y="644"/>
      <point x="21" y="739"/>
      <point x="19" y="741" type="curve" smooth="yes"/>
      <point x="17" y="743"/>
      <point x="10" y="761"/>
      <point x="8" y="769" type="curve" smooth="yes"/>
      <point x="6" y="777"/>
      <point x="5" y="804"/>
      <point x="22" y="804" type="curve" smooth="yes"/>
      <point x="39" y="804"/>
      <point x="170" y="780"/>
      <point x="185" y="782" type="curve" smooth="yes"/>
      <point x="200" y="784"/>
      <point x="245" y="803"/>
      <point x="263" y="802" type="curve" smooth="yes"/>
      <point x="281" y="801"/>
      <point x="287" y="784"/>
      <point x="285" y="777" type="curve" smooth="yes"/>
      <point x="283" y="770"/>
      <point x="265" y="754"/>
      <point x="262" y="748" type="curve" smooth="yes"/>
      <point x="259" y="742"/>
      <point x="179" y="417"/>
      <point x="180" y="377" type="curve" smooth="yes"/>
      <point x="181" y="337"/>
      <point x="189" y="151"/>
      <point x="194" y="133" type="curve" smooth="yes"/>
      <point x="199" y="115"/>
      <point x="217" y="85"/>
      <point x="241" y="87" type="curve" smooth="yes"/>
      <point x="265" y="89"/>
      <point x="306" y="130"/>
      <point x="305" y="144" type="curve" smooth="yes"/>
      <point x="304" y="158"/>
      <point x="318" y="182"/>
      <point x="343" y="180" type="curve" smooth="yes"/>
      <point x="368" y="178"/>
      <point x="352" y="157"/>
      <point x="352" y="142" type="curve" smooth="yes"/>
      <point x="352" y="127"/>
      <point x="329" y="19"/>
      <point x="330" y="4" type="curve" smooth="yes"/>
      <point x="331" y="-11"/>
      <point x="315" y="-14"/>
      <point x="307" y="-15" type="curve" smooth="yes"/>
      <point x="299" y="-16"/>
      <point x="267" y="0"/>
      <point x="182" y="0" type="curve" smooth="yes"/>
      <point x="124" y="0"/>
      <point x="62" y="-10"/>
      <point x="37" y="-10" type="curve" smooth="yes"/>
      <point x="27" y="-10"/>
      <point x="10" y="7"/>
    </contour>
  </outline>
</glyph>
<glyph name="N" format="2">
	<unicode hex="004E"/>
	<advance width="350"/>
	<outline>
		<contour>
			<point x="10" y="20" type="curve" smooth="yes"/>
			<point x="10" y="0"/>
			<point x="30" y="0"/>
			<point x="50" y="0" type="curve" smooth="yes"/>
			<point x="70" y="0"/>
			<point x="90" y="0"/>
			<point x="90" y="20" type="curve" smooth="yes"/>
			<point x="90" y="37"/>
			<point x="70" y="40"/>
			<point x="70" y="60" type="curve"/>
			<point x="70" y="310" type="line"/>
			<point x="70" y="329"/>
			<point x="77" y="339"/>
			<point x="89" y="339" type="curve" smooth="yes"/>
			<point x="132" y="339"/>
			<point x="223" y="-10"/>
			<point x="300" y="-10" type="curve" smooth="yes"/>
			<point x="320" y="-10"/>
			<point x="340" y="0"/>
			<point x="340" y="30" type="curve" smooth="yes"/>
			<point x="340" y="58"/>
			<point x="320" y="60"/>
			<point x="320" y="90" type="curve"/>
			<point x="320" y="600" type="line" smooth="yes"/>
			<point x="320" y="670"/>
			<point x="290" y="730"/>
			<point x="220" y="730" type="curve" smooth="yes"/>
			<point x="200" y="730"/>
			<point x="180" y="720"/>
			<point x="180" y="690" type="curve" smooth="yes"/>
			<point x="180" y="630"/>
			<point x="280" y="620"/>
			<point x="280" y="501" type="curve" smooth="yes"/>
			<point x="280" y="415" type="line" smooth="yes"/>
			<point x="280" y="395"/>
			<point x="270" y="382"/>
			<point x="248" y="382" type="curve" smooth="yes"/>
			<point x="206" y="382"/>
			<point x="120" y="690"/>
			<point x="50" y="690" type="curve" smooth="yes"/>
			<point x="30" y="690"/>
			<point x="10" y="690"/>
			<point x="10" y="670" type="curve" smooth="yes"/>
			<point x="10" y="650"/>
			<point x="30" y="630"/>
			<point x="30" y="590" type="curve"/>
			<point x="30" y="60" type="line"/>
			<point x="30" y="40"/>
			<point x="10" y="40"/>
		</contour>
	</outline>
</glyph>
<glyph name="S" format="2">
	<unicode hex="0053"/>
	<advance width="300"/>
	<outline>
		<contour>
			<point x="132" y="85" type="line"/>
			<point x="92" y="138" type="line"/>
			<point x="64" y="129"/>
			<point x="17" y="132"/>
			<point x="8" y="110" type="curve" smooth="yes"/>
			<point x="19" y="-5" type="line"/>
			<point x="108" y="-24" type="line"/>
			<point x="217" y="-21" type="line"/>
			<point x="289" y="40" type="line"/>
			<point x="286" y="242" type="line"/>
			<point x="244" y="379" type="line"/>
			<point x="98" y="494" type="line"/>
			<point x="110" y="522"/>
			<point x="168" y="585"/>
			<point x="174" y="578" type="curve" smooth="yes"/>
			<point x="220" y="550" type="line"/>
			<point x="234" y="542"/>
			<point x="258" y="519"/>
			<point x="261" y="525" type="curve" smooth="yes"/>
			<point x="264" y="531"/>
			<point x="290" y="567"/>
			<point x="288" y="594" type="curve" smooth="yes"/>
			<point x="249" y="720" type="line"/>
			<point x="204" y="723"/>
			<point x="127" y="738"/>
			<point x="113" y="730" type="curve" smooth="yes"/>
			<point x="99" y="722"/>
			<point x="-2" y="650"/>
			<point x="-2" y="615" type="curve" smooth="yes"/>
			<point x="-2" y="580"/>
			<point x="-5" y="369"/>
			<point x="4" y="359" type="curve" smooth="yes"/>
			<point x="13" y="349"/>
			<point x="119" y="209"/>
			<point x="130" y="196" type="curve" smooth="yes"/>
			<point x="141" y="183"/>
			<point x="166" y="101"/>
			<point x="163" y="97" type="curve" smooth="yes"/>
		</contour>
	</outline>
</glyph>
<glyph name="T" format="2">
	<unicode hex="0054"/>
	<advance width="310"/>
	<outline>
		<contour>
			<point x="190" y="0" type="curve" smooth="yes"/>
			<point x="270" y="0"/>
			<point x="280" y="5"/>
			<point x="280" y="20" type="curve" smooth="yes"/>
			<point x="280" y="30"/>
			<point x="260" y="40"/>
			<point x="260" y="60" type="curve" smooth="yes"/>
			<point x="260" y="630" type="line" smooth="yes"/>
			<point x="260" y="650"/>
			<point x="270" y="660"/>
			<point x="280" y="660" type="curve" smooth="yes"/>
			<point x="320" y="660"/>
			<point x="320" y="610"/>
			<point x="350" y="610" type="curve" smooth="yes"/>
			<point x="360" y="610"/>
			<point x="370" y="620"/>
			<point x="370" y="660" type="curve" smooth="yes"/>
			<point x="370" y="700"/>
			<point x="360" y="720"/>
			<point x="330" y="720" type="curve" smooth="yes"/>
			<point x="300" y="720"/>
			<point x="230" y="700"/>
			<point x="180" y="700" type="curve" smooth="yes"/>
			<point x="128" y="700"/>
			<point x="76" y="720"/>
			<point x="54" y="720" type="curve" smooth="yes"/>
			<point x="20" y="720"/>
			<point x="10" y="700"/>
			<point x="10" y="660" type="curve" smooth="yes"/>
			<point x="10" y="620"/>
			<point x="20" y="610"/>
			<point x="30" y="610" type="curve" smooth="yes"/>
			<point x="60" y="610"/>
			<point x="77" y="660"/>
			<point x="100" y="660" type="curve" smooth="yes"/>
			<point x="110" y="660"/>
			<point x="120" y="650"/>
			<point x="120" y="630" type="curve" smooth="yes"/>
			<point x="120" y="60" type="line" smooth="yes"/>
			<point x="120" y="40"/>
			<point x="100" y="30"/>
			<point x="100" y="20" type="curve" smooth="yes"/>
			<point x="100" y="5"/>
			<point x="110" y="0"/>
		</contour>
	</outline>
</glyph>
<glyph name="Y" format="2">
  <unicode hex="0059"/>
  <outline>
    <contour>
      <point x="13" y="44" type="curve" smooth="yes"/>
      <point x="14" y="22"/>
      <point x="-1" y="-3"/>
      <point x="34" y="-5" type="curve" smooth="yes"/>
      <point x="69" y="-7"/>
      <point x="82" y="14"/>
      <point x="120" y="11" type="curve" smooth="yes"/>
      <point x="158" y="8"/>
      <point x="188" y="-9"/>
      <point x="206" y="-8" type="curve" smooth="yes"/>
      <point x="224" y="-7"/>
      <point x="240" y="6"/>
      <point x="240" y="27" type="curve" smooth="yes"/>
      <point x="240" y="46"/>
      <point x="204" y="290"/>
      <point x="205" y="322" type="curve" smooth="yes"/>
      <point x="206" y="354"/>
      <point x="204" y="368"/>
      <point x="221" y="380" type="curve" smooth="yes"/>
      <point x="238" y="392"/>
      <point x="436" y="556"/>
      <point x="436" y="638" type="curve" smooth="yes"/>
      <point x="436" y="686"/>
      <point x="411" y="704"/>
      <point x="381" y="702" type="curve" smooth="yes"/>
      <point x="351" y="700"/>
      <point x="311" y="684"/>
      <point x="314" y="628" type="curve" smooth="yes"/>
      <point x="317" y="576"/>
      <point x="343" y="578"/>
      <point x="329" y="553" type="curve" smooth="yes"/>
      <point x="315" y="528"/>
      <point x="275" y="454"/>
      <point x="236" y="453" type="curve" smooth="yes"/>
      <point x="209" y="452"/>
      <point x="160" y="628"/>
      <point x="164" y="650" type="curve" smooth="yes"/>
      <point x="168" y="672"/>
      <point x="214" y="665"/>
      <point x="213" y="684" type="curve" smooth="yes"/>
      <point x="212" y="703"/>
      <point x="205" y="716"/>
      <point x="182" y="717" type="curve" smooth="yes"/>
      <point x="159" y="718"/>
      <point x="113" y="685"/>
      <point x="88" y="691" type="curve" smooth="yes"/>
      <point x="63" y="697"/>
      <point x="48" y="711"/>
      <point x="34" y="715" type="curve" smooth="yes"/>
      <point x="20" y="719"/>
      <point x="-3" y="722"/>
      <point x="-5" y="700" type="curve" smooth="yes"/>
      <point x="-7" y="678"/>
      <point x="30" y="658"/>
      <point x="31" y="644" type="curve" smooth="yes"/>
      <point x="32" y="630"/>
      <point x="55" y="411"/>
      <point x="55" y="368" type="curve" smooth="yes"/>
      <point x="55" y="227"/>
      <point x="7" y="177"/>
    </contour>
  </outline>
</glyph>
<glyph name="a" format="2">
  <advance width="285"/>
  <unicode hex="0061"/>
  <outline>
    <contour>
      <point x="78" y="-10" type="curve" smooth="yes"/>
      <point x="136" y="-10"/>
      <point x="150" y="20"/>
      <point x="161" y="20" type="curve" smooth="yes"/>
      <point x="172" y="20"/>
      <point x="170" y="-3"/>
      <point x="185" y="-3" type="curve" smooth="yes"/>
      <point x="195" y="-3"/>
      <point x="206" y="0"/>
      <point x="216" y="0" type="curve" smooth="yes"/>
      <point x="230" y="0"/>
      <point x="248" y="-5"/>
      <point x="261" y="-5" type="curve" smooth="yes"/>
      <point x="271" y="-5"/>
      <point x="285" y="-1"/>
      <point x="285" y="13" type="curve" smooth="yes"/>
      <point x="285" y="24"/>
      <point x="270" y="34"/>
      <point x="270" y="269" type="curve" smooth="yes"/>
      <point x="270" y="575"/>
      <point x="235" y="610"/>
      <point x="172" y="610" type="curve" smooth="yes"/>
      <point x="78" y="610"/>
      <point x="41" y="540"/>
      <point x="40" y="492" type="curve" smooth="yes"/>
      <point x="39" y="453"/>
      <point x="50" y="440"/>
      <point x="76" y="440" type="curve" smooth="yes"/>
      <point x="106" y="440"/>
      <point x="127" y="449"/>
      <point x="128" y="485" type="curve" smooth="yes"/>
      <point x="129" y="529"/>
      <point x="107" y="578"/>
      <point x="145" y="579" type="curve" smooth="yes"/>
      <point x="165" y="580"/>
      <point x="199" y="563"/>
      <point x="199" y="520" type="curve" smooth="yes"/>
      <point x="199" y="487"/>
      <point x="179" y="471"/>
      <point x="148" y="448" type="curve" smooth="yes"/>
      <point x="27" y="361"/>
      <point x="10" y="246"/>
      <point x="10" y="133" type="curve" smooth="yes"/>
      <point x="10" y="27"/>
      <point x="43" y="-10"/>
    </contour>
    <contour>
      <point x="154" y="323" type="curve" smooth="yes"/>
      <point x="171" y="324"/>
      <point x="180" y="318"/>
      <point x="180" y="303" type="curve" smooth="yes"/>
      <point x="180" y="286"/>
      <point x="170" y="263"/>
      <point x="169" y="240" type="curve" smooth="yes"/>
      <point x="167" y="200"/>
      <point x="177" y="169"/>
      <point x="177" y="139" type="curve" smooth="yes"/>
      <point x="177" y="119"/>
      <point x="184" y="98"/>
      <point x="169" y="98" type="curve" smooth="yes"/>
      <point x="155" y="98"/>
      <point x="148" y="112"/>
      <point x="145" y="132" type="curve" smooth="yes"/>
      <point x="143" y="145"/>
      <point x="134" y="217"/>
      <point x="138" y="274" type="curve" smooth="yes"/>
      <point x="139" y="302"/>
      <point x="138" y="322"/>
    </contour>
  </outline>
</glyph>
<glyph name="c" format="2">
  <advance width="270"/>
  <unicode hex="0063"/>
  <outline>
    <contour>
      <point x="90" y="-5" type="curve" smooth="yes"/>
      <point x="242" y="-5"/>
      <point x="267" y="36"/>
      <point x="267" y="81" type="curve" smooth="yes"/>
      <point x="267" y="116"/>
      <point x="275" y="156"/>
      <point x="227" y="154" type="curve" smooth="yes"/>
      <point x="198" y="153"/>
      <point x="173" y="124"/>
      <point x="174" y="105" type="curve" smooth="yes"/>
      <point x="174" y="88"/>
      <point x="191" y="83"/>
      <point x="191" y="65" type="curve" smooth="yes"/>
      <point x="191" y="49"/>
      <point x="174" y="49"/>
      <point x="159" y="48" type="curve" smooth="yes"/>
      <point x="129" y="47"/>
      <point x="115" y="231"/>
      <point x="115" y="259" type="curve" smooth="yes"/>
      <point x="116" y="436"/>
      <point x="157" y="552"/>
      <point x="184" y="551" type="curve" smooth="yes"/>
      <point x="194" y="551"/>
      <point x="214" y="553"/>
      <point x="214" y="538" type="curve" smooth="yes"/>
      <point x="214" y="518"/>
      <point x="201" y="513"/>
      <point x="202" y="503" type="curve" smooth="yes"/>
      <point x="203" y="490"/>
      <point x="220" y="481"/>
      <point x="230" y="481" type="curve" smooth="yes"/>
      <point x="248" y="481"/>
      <point x="259" y="497"/>
      <point x="259" y="542" type="curve" smooth="yes"/>
      <point x="259" y="575"/>
      <point x="213" y="603"/>
      <point x="152" y="604" type="curve" smooth="yes"/>
      <point x="104" y="605"/>
      <point x="5" y="502"/>
      <point x="6" y="285" type="curve" smooth="yes"/>
      <point x="7" y="60"/>
      <point x="49" y="-5"/>
    </contour>
  </outline>
</glyph>
<glyph name="d" format="2">
  <advance width="261"/>
  <unicode hex="0064"/>
  <outline>
    <contour>
      <point x="85" y="-5" type="curve" smooth="yes"/>
      <point x="119" y="-5"/>
      <point x="138" y="25"/>
      <point x="153" y="25" type="curve" smooth="yes"/>
      <point x="166" y="25"/>
      <point x="161" y="0"/>
      <point x="181" y="0" type="curve" smooth="yes"/>
      <point x="225" y="0"/>
      <point x="228" y="-4"/>
      <point x="237" y="-4" type="curve" smooth="yes"/>
      <point x="246" y="-4"/>
      <point x="256" y="4"/>
      <point x="256" y="15" type="curve" smooth="yes"/>
      <point x="256" y="32"/>
      <point x="238" y="39"/>
      <point x="238" y="52" type="curve" smooth="yes"/>
      <point x="237" y="683" type="line" smooth="yes"/>
      <point x="237" y="696"/>
      <point x="236" y="703"/>
      <point x="227" y="703" type="curve" smooth="yes"/>
      <point x="216" y="703"/>
      <point x="206" y="700"/>
      <point x="184" y="700" type="curve" smooth="yes"/>
      <point x="178" y="700"/>
      <point x="166" y="704"/>
      <point x="156" y="704" type="curve" smooth="yes"/>
      <point x="146" y="704"/>
      <point x="142" y="699"/>
      <point x="142" y="691" type="curve" smooth="yes"/>
      <point x="142" y="681"/>
      <point x="158" y="674"/>
      <point x="158" y="659" type="curve" smooth="yes"/>
      <point x="158" y="589"/>
      <point x="154" y="582"/>
      <point x="145" y="582" type="curve" smooth="yes"/>
      <point x="134" y="582"/>
      <point x="124" y="601"/>
      <point x="80" y="601" type="curve" smooth="yes"/>
      <point x="48" y="601"/>
      <point x="5" y="586"/>
      <point x="5" y="300" type="curve" smooth="yes"/>
      <point x="5" y="14"/>
      <point x="43" y="-5"/>
    </contour>
    <contour>
      <point x="129" y="50" type="curve" smooth="yes"/>
      <point x="119" y="50"/>
      <point x="106" y="31"/>
      <point x="106" y="300" type="curve" smooth="yes"/>
      <point x="106" y="437"/>
      <point x="95" y="560"/>
      <point x="126" y="560" type="curve" smooth="yes"/>
      <point x="143" y="560"/>
      <point x="143" y="549"/>
      <point x="143" y="300" type="curve" smooth="yes"/>
      <point x="143" y="100"/>
      <point x="141" y="50"/>
    </contour>
  </outline>
</glyph>
<glyph name="e" format="2">
	<unicode hex="0065"/>
	<advance width="263"/>
	<outline>
		<contour>
			<point x="150" y="-10" type="curve" smooth="yes"/>
			<point x="200" y="-10"/>
			<point x="240" y="30"/>
			<point x="240" y="70" type="curve" smooth="yes"/>
			<point x="240" y="110"/>
			<point x="220" y="120"/>
			<point x="200" y="120" type="curve" smooth="yes"/>
			<point x="180" y="120"/>
			<point x="170" y="110"/>
			<point x="170" y="90" type="curve" smooth="yes"/>
			<point x="170" y="70"/>
			<point x="180" y="60"/>
			<point x="180" y="44" type="curve" smooth="yes"/>
			<point x="180" y="30"/>
			<point x="170" y="20"/>
			<point x="150" y="20" type="curve" smooth="yes"/>
			<point x="130" y="20"/>
			<point x="120" y="30"/>
			<point x="120" y="50" type="curve" smooth="yes"/>
			<point x="120" y="420" type="line" smooth="yes"/>
			<point x="120" y="440"/>
			<point x="130" y="450"/>
			<point x="150" y="450" type="curve" smooth="yes"/>
			<point x="220" y="450" type="line" smooth="yes"/>
			<point x="246" y="450"/>
			<point x="253" y="460"/>
			<point x="253" y="481" type="curve" smooth="yes"/>
			<point x="253" y="582"/>
			<point x="195" y="610"/>
			<point x="157" y="610" type="curve" smooth="yes"/>
			<point x="67" y="610"/>
			<point x="0" y="530"/>
			<point x="0" y="275" type="curve" smooth="yes"/>
			<point x="0" y="100"/>
			<point x="50" y="-10"/>
		</contour>
		<contour>
			<point x="140" y="478" type="line" smooth="yes"/>
			<point x="131" y="478"/>
			<point x="120" y="484"/>
			<point x="120" y="494" type="curve" smooth="yes"/>
			<point x="120" y="550" type="line" smooth="yes"/>
			<point x="120" y="570"/>
			<point x="120" y="580"/>
			<point x="130" y="580" type="curve" smooth="yes"/>
			<point x="160" y="580"/>
			<point x="169" y="523"/>
			<point x="169" y="491" type="curve" smooth="yes"/>
			<point x="169" y="484"/>
			<point x="167" y="478"/>
			<point x="158" y="478" type="curve" smooth="yes"/>
		</contour>
	</outline>
</glyph>
<glyph name="f" format="2">
  <advance width="150"/>
  <unicode hex="0066"/>
  <outline>
    <contour>
      <point x="14" y="-7" type="line"/>
      <point x="31" y="-5"/>
      <point x="50" y="0"/>
      <point x="64" y="0" type="curve" smooth="yes"/>
      <point x="78" y="0"/>
      <point x="111" y="-12"/>
      <point x="119" y="-11" type="curve" smooth="yes"/>
      <point x="127" y="-10"/>
      <point x="145" y="-6"/>
      <point x="144" y="4" type="curve" smooth="yes"/>
      <point x="143" y="14"/>
      <point x="131" y="28"/>
      <point x="129" y="39" type="curve" smooth="yes"/>
      <point x="127" y="50"/>
      <point x="137" y="323"/>
      <point x="135" y="330" type="curve" smooth="yes"/>
      <point x="133" y="337"/>
      <point x="130" y="561"/>
      <point x="132" y="568" type="curve" smooth="yes"/>
      <point x="134" y="575"/>
      <point x="144" y="573"/>
      <point x="146" y="581" type="curve" smooth="yes"/>
      <point x="148" y="589"/>
      <point x="144" y="603"/>
      <point x="136" y="603" type="curve" smooth="yes"/>
      <point x="128" y="603"/>
      <point x="51" y="618"/>
      <point x="53" y="633" type="curve" smooth="yes"/>
      <point x="55" y="648"/>
      <point x="57" y="678"/>
      <point x="68" y="676" type="curve" smooth="yes"/>
      <point x="86" y="673"/>
      <point x="94" y="640"/>
      <point x="111" y="643" type="curve" smooth="yes"/>
      <point x="120" y="645"/>
      <point x="146" y="662"/>
      <point x="145" y="672" type="curve" smooth="yes"/>
      <point x="144" y="682"/>
      <point x="148" y="724"/>
      <point x="124" y="725" type="curve" smooth="yes"/>
      <point x="58" y="727"/>
      <point x="3" y="663"/>
      <point x="3" y="642" type="curve" smooth="yes"/>
      <point x="3" y="621"/>
      <point x="-8" y="621"/>
      <point x="-9" y="608" type="curve" smooth="yes"/>
      <point x="-10" y="595"/>
      <point x="13" y="596"/>
      <point x="11" y="588" type="curve" smooth="yes"/>
      <point x="9" y="580"/>
      <point x="8" y="362"/>
      <point x="12" y="336" type="curve" smooth="yes"/>
      <point x="16" y="310"/>
      <point x="-5" y="34"/>
      <point x="-4" y="15" type="curve" smooth="yes"/>
    </contour>
  </outline>
</glyph>
<glyph name="g" format="2">
  <advance width="300"/>
  <unicode hex="0067"/>
  <outline>
    <contour>
      <point x="152" y="-103" type="line"/>
      <point x="193" y="-67"/>
      <point x="283" y="-49"/>
      <point x="273" y="5" type="curve" smooth="yes"/>
      <point x="264" y="59"/>
      <point x="256" y="67"/>
      <point x="229" y="60" type="curve" smooth="yes"/>
      <point x="202" y="53"/>
      <point x="156" y="1"/>
      <point x="141" y="2" type="curve" smooth="yes"/>
      <point x="125" y="3"/>
      <point x="119" y="16"/>
      <point x="120" y="36" type="curve" smooth="yes"/>
      <point x="121" y="56"/>
      <point x="277" y="107"/>
      <point x="283" y="179" type="curve" smooth="yes"/>
      <point x="288" y="251"/>
      <point x="287" y="600"/>
      <point x="224" y="600" type="curve" smooth="yes"/>
      <point x="208" y="600"/>
      <point x="189" y="597"/>
      <point x="189" y="616" type="curve" smooth="yes"/>
      <point x="189" y="638"/>
      <point x="277" y="656"/>
      <point x="277" y="697" type="curve" smooth="yes"/>
      <point x="276" y="722"/>
      <point x="253" y="737"/>
      <point x="234" y="736" type="curve" smooth="yes"/>
      <point x="207" y="734"/>
      <point x="193" y="722"/>
      <point x="194" y="690" type="curve" smooth="yes"/>
      <point x="196" y="659"/>
      <point x="173" y="631"/>
      <point x="154" y="623" type="curve" smooth="yes"/>
      <point x="123" y="611"/>
      <point x="38" y="587"/>
      <point x="35" y="480" type="curve" smooth="yes"/>
      <point x="32" y="373"/>
      <point x="32" y="163"/>
      <point x="41" y="140" type="curve" smooth="yes"/>
      <point x="49" y="117"/>
      <point x="101" y="44"/>
      <point x="103" y="32" type="curve" smooth="yes"/>
      <point x="105" y="20"/>
      <point x="38" y="17"/>
      <point x="37" y="-12" type="curve" smooth="yes"/>
      <point x="36" y="-41"/>
      <point x="27" y="-92"/>
      <point x="56" y="-109" type="curve" smooth="yes"/>
    </contour>
    <contour>
      <point x="193" y="-7" type="line"/>
      <point x="227" y="31" type="line"/>
      <point x="239" y="-27" type="line"/>
      <point x="193" y="-51" type="line"/>
    </contour>
    <contour>
      <point x="140" y="130" type="line"/>
      <point x="137" y="228" type="line"/>
      <point x="127" y="567" type="line"/>
      <point x="158" y="571" type="line"/>
      <point x="170" y="130" type="line"/>
    </contour>
  </outline>
</glyph>
<glyph name="h" format="2">
  <advance width="270"/>
  <unicode hex="0068"/>
  <outline>
    <contour>
      <point x="17" y="696" type="line"/>
      <point x="17" y="1" type="line"/>
      <point x="116" y="5" type="line"/>
      <point x="110" y="478" type="line"/>
      <point x="125" y="535" type="line"/>
      <point x="179" y="480" type="line"/>
      <point x="154" y="1" type="line"/>
      <point x="260" y="0" type="line"/>
      <point x="239" y="547" type="line"/>
      <point x="190" y="609" type="line"/>
      <point x="102" y="614" type="line"/>
      <point x="91" y="699" type="line"/>
    </contour>
  </outline>
</glyph>
<glyph name="i" format="2">
  <advance width="138"/>
  <unicode hex="0069"/>
  <outline>
    <contour>
      <point x="5" y="13" type="curve" smooth="yes"/>
      <point x="5" y="-3"/>
      <point x="14" y="-3"/>
      <point x="30" y="-3" type="curve" smooth="yes"/>
      <point x="47" y="-3"/>
      <point x="62" y="2"/>
      <point x="77" y="2" type="curve" smooth="yes"/>
      <point x="95" y="2"/>
      <point x="103" y="-2"/>
      <point x="124" y="-2" type="curve" smooth="yes"/>
      <point x="141" y="-2"/>
      <point x="149" y="3"/>
      <point x="150" y="14" type="curve" smooth="yes"/>
      <point x="151" y="24"/>
      <point x="131" y="33"/>
      <point x="131" y="60" type="curve" smooth="yes"/>
      <point x="131" y="594" type="line" smooth="yes"/>
      <point x="131" y="608"/>
      <point x="128" y="617"/>
      <point x="116" y="617" type="curve" smooth="yes"/>
      <point x="104" y="617"/>
      <point x="94" y="600"/>
      <point x="22" y="600" type="curve" smooth="yes"/>
      <point x="13" y="600"/>
      <point x="9" y="595"/>
      <point x="9" y="588" type="curve" smooth="yes"/>
      <point x="9" y="579"/>
      <point x="21" y="574"/>
      <point x="21" y="558" type="curve" smooth="yes"/>
      <point x="21" y="48" type="line" smooth="yes"/>
      <point x="21" y="33"/>
      <point x="5" y="28"/>
    </contour>
    <contour>
      <point x="48" y="625" type="curve" smooth="yes"/>
      <point x="86" y="625"/>
      <point x="124" y="641"/>
      <point x="124" y="672" type="curve" smooth="yes"/>
      <point x="124" y="690"/>
      <point x="106" y="700"/>
      <point x="78" y="700" type="curve" smooth="yes"/>
      <point x="49" y="700"/>
      <point x="13" y="681"/>
      <point x="13" y="654" type="curve" smooth="yes"/>
      <point x="13" y="640"/>
      <point x="21" y="625"/>
    </contour>
  </outline>
</glyph>
<glyph name="l" format="2">
	<unicode hex="006C"/>
	<advance width="180"/>
	<outline>
		<contour>
			<point x="10" y="20" type="curve" smooth="yes"/>
			<point x="10" y="0"/>
			<point x="36" y="0"/>
			<point x="90" y="0" type="curve" smooth="yes"/>
			<point x="140" y="0"/>
			<point x="170" y="0"/>
			<point x="170" y="20" type="curve" smooth="yes"/>
			<point x="170" y="40"/>
			<point x="150" y="40"/>
			<point x="150" y="60" type="curve"/>
			<point x="150" y="654" type="line"/>
			<point x="150" y="671"/>
			<point x="145" y="700"/>
			<point x="118" y="700" type="curve" smooth="yes"/>
			<point x="81" y="700"/>
			<point x="10" y="690"/>
			<point x="10" y="670" type="curve" smooth="yes"/>
			<point x="10" y="650"/>
			<point x="30" y="650"/>
			<point x="30" y="630" type="curve" smooth="yes"/>
			<point x="30" y="60" type="line"/>
			<point x="30" y="40"/>
			<point x="10" y="40"/>
		</contour>
	</outline>
</glyph>
<glyph name="n" format="2">
  <advance width="282"/>
  <unicode hex="006E"/>
  <outline>
    <contour>
      <point x="23" y="-3" type="curve" smooth="yes"/>
      <point x="45" y="-3"/>
      <point x="76" y="0"/>
      <point x="86" y="0" type="curve" smooth="yes"/>
      <point x="99" y="0"/>
      <point x="110" y="-3"/>
      <point x="127" y="-3" type="curve" smooth="yes"/>
      <point x="140" y="-3"/>
      <point x="146" y="6"/>
      <point x="146" y="19" type="curve" smooth="yes"/>
      <point x="146" y="33"/>
      <point x="136" y="38"/>
      <point x="133" y="58" type="curve" smooth="yes"/>
      <point x="126" y="104"/>
      <point x="127" y="181"/>
      <point x="126" y="240" type="curve" smooth="yes"/>
      <point x="125" y="357"/>
      <point x="134" y="412"/>
      <point x="132" y="489" type="curve" smooth="yes"/>
      <point x="132" y="501"/>
      <point x="137" y="515"/>
      <point x="147" y="515" type="curve" smooth="yes"/>
      <point x="157" y="515"/>
      <point x="162" y="490"/>
      <point x="163" y="478" type="curve" smooth="yes"/>
      <point x="165" y="458"/>
      <point x="164" y="187"/>
      <point x="170" y="25" type="curve" smooth="yes"/>
      <point x="170" y="16"/>
      <point x="171" y="8"/>
      <point x="171" y="-1" type="curve"/>
      <point x="277" y="-3" type="line"/>
      <point x="277" y="7"/>
      <point x="277" y="17"/>
      <point x="277" y="27" type="curve" smooth="yes"/>
      <point x="277" y="108"/>
      <point x="275" y="185"/>
      <point x="275" y="266" type="curve" smooth="yes"/>
      <point x="275" y="338"/>
      <point x="277" y="444"/>
      <point x="277" y="516" type="curve" smooth="yes"/>
      <point x="277" y="596"/>
      <point x="239" y="610"/>
      <point x="207" y="610" type="curve" smooth="yes"/>
      <point x="159" y="610"/>
      <point x="152" y="544"/>
      <point x="132" y="544" type="curve" smooth="yes"/>
      <point x="123" y="544"/>
      <point x="119" y="548"/>
      <point x="119" y="560" type="curve" smooth="yes"/>
      <point x="119" y="594"/>
      <point x="117" y="605"/>
      <point x="105" y="605" type="curve" smooth="yes"/>
      <point x="94" y="605"/>
      <point x="72" y="600"/>
      <point x="58" y="600" type="curve" smooth="yes"/>
      <point x="44" y="600"/>
      <point x="31" y="604"/>
      <point x="21" y="604" type="curve" smooth="yes"/>
      <point x="10" y="604"/>
      <point x="5" y="596"/>
      <point x="5" y="587" type="curve" smooth="yes"/>
      <point x="5" y="574"/>
      <point x="18" y="573"/>
      <point x="19" y="558" type="curve" smooth="yes"/>
      <point x="26" y="484"/>
      <point x="24" y="407"/>
      <point x="24" y="240" type="curve" smooth="yes"/>
      <point x="24" y="171"/>
      <point x="26" y="111"/>
      <point x="21" y="46" type="curve" smooth="yes"/>
      <point x="20" y="34"/>
      <point x="8" y="32"/>
      <point x="8" y="16" type="curve" smooth="yes"/>
      <point x="8" y="5"/>
      <point x="11" y="-3"/>
    </contour>
  </outline>
</glyph>
<glyph name="o" format="2">
	<unicode hex="006F"/>
	<advance width="320"/>
	<outline>
		<contour>
			<point x="139" y="-11" type="curve" smooth="yes"/>
			<point x="257" y="-13"/>
			<point x="302" y="22"/>
			<point x="300" y="60" type="curve"/>
			<point x="300" y="440" type="line"/>
			<point x="300" y="540"/>
			<point x="260" y="600"/>
			<point x="160" y="600" type="curve" smooth="yes"/>
			<point x="60" y="600"/>
			<point x="20" y="540"/>
			<point x="20" y="430" type="curve"/>
			<point x="20" y="80" type="line"/>
			<point x="21" y="9"/>
			<point x="108" y="-10"/>
		</contour>
		<contour>
			<point x="130" y="530" type="curve" smooth="yes"/>
			<point x="130" y="550"/>
			<point x="140" y="550"/>
			<point x="147" y="550" type="curve" smooth="yes"/>
			<point x="170" y="550"/>
			<point x="180" y="540"/>
			<point x="180" y="510" type="curve"/>
			<point x="180" y="100" type="line"/>
			<point x="180" y="50"/>
			<point x="163" y="40"/>
			<point x="150" y="40" type="curve" smooth="yes"/>
			<point x="130" y="40"/>
			<point x="140" y="60"/>
			<point x="140" y="90" type="curve"/>
			<point x="140" y="492" type="line"/>
			<point x="142" y="516"/>
			<point x="130" y="512"/>
		</contour>
	</outline>
</glyph>
<glyph name="r" format="2">
  <advance width="240"/>
  <unicode hex="0072"/>
  <outline>
    <contour>
      <point x="10" y="13" type="curve" smooth="yes"/>
      <point x="10" y="-1"/>
      <point x="14" y="-3"/>
      <point x="28" y="-3" type="curve" smooth="yes"/>
      <point x="43" y="-3"/>
      <point x="59" y="0"/>
      <point x="96" y="0" type="curve" smooth="yes"/>
      <point x="119" y="0"/>
      <point x="143" y="-3"/>
      <point x="161" y="-3" type="curve" smooth="yes"/>
      <point x="177" y="-3"/>
      <point x="182" y="3"/>
      <point x="182" y="18" type="curve" smooth="yes"/>
      <point x="182" y="32"/>
      <point x="166" y="37"/>
      <point x="164" y="62" type="curve" smooth="yes"/>
      <point x="160" y="115"/>
      <point x="155" y="217"/>
      <point x="155" y="359" type="curve" smooth="yes"/>
      <point x="155" y="420"/>
      <point x="135" y="461"/>
      <point x="135" y="485" type="curve" smooth="yes"/>
      <point x="135" y="500"/>
      <point x="146" y="508"/>
      <point x="158" y="508" type="curve" smooth="yes"/>
      <point x="190" y="508"/>
      <point x="170" y="463"/>
      <point x="206" y="463" type="curve" smooth="yes"/>
      <point x="236" y="463"/>
      <point x="268" y="492"/>
      <point x="268" y="545" type="curve" smooth="yes"/>
      <point x="268" y="582"/>
      <point x="264" y="610"/>
      <point x="230" y="610" type="curve" smooth="yes"/>
      <point x="193" y="610"/>
      <point x="169" y="562"/>
      <point x="154" y="562" type="curve" smooth="yes"/>
      <point x="144" y="562"/>
      <point x="140" y="570"/>
      <point x="140" y="583" type="curve" smooth="yes"/>
      <point x="140" y="595"/>
      <point x="133" y="603"/>
      <point x="123" y="603" type="curve" smooth="yes"/>
      <point x="104" y="603"/>
      <point x="87" y="600"/>
      <point x="73" y="600" type="curve" smooth="yes"/>
      <point x="50" y="600"/>
      <point x="43" y="602"/>
      <point x="30" y="602" type="curve" smooth="yes"/>
      <point x="14" y="602"/>
      <point x="10" y="593"/>
      <point x="10" y="579" type="curve" smooth="yes"/>
      <point x="10" y="573"/>
      <point x="20" y="565"/>
      <point x="22" y="556" type="curve" smooth="yes"/>
      <point x="25" y="543"/>
      <point x="30" y="442"/>
      <point x="30" y="319" type="curve" smooth="yes"/>
      <point x="30" y="167"/>
      <point x="29" y="85"/>
      <point x="23" y="50" type="curve" smooth="yes"/>
      <point x="20" y="34"/>
      <point x="10" y="24"/>
    </contour>
  </outline>
</glyph>
<glyph name="s" format="2">
  <advance width="281"/>
  <unicode hex="0073"/>
  <outline>
    <contour>
      <point x="89" y="-14" type="curve" smooth="yes"/>
      <point x="103" y="-15"/>
      <point x="278" y="-3"/>
      <point x="281" y="116" type="curve" smooth="yes"/>
      <point x="284" y="235"/>
      <point x="224" y="319"/>
      <point x="207" y="342" type="curve" smooth="yes"/>
      <point x="128" y="450"/>
      <point x="74" y="479"/>
      <point x="74" y="502" type="curve" smooth="yes"/>
      <point x="74" y="559"/>
      <point x="105" y="542"/>
      <point x="122" y="542" type="curve" smooth="yes"/>
      <point x="169" y="542"/>
      <point x="169" y="469"/>
      <point x="216" y="469" type="curve" smooth="yes"/>
      <point x="251" y="469"/>
      <point x="259" y="493"/>
      <point x="259" y="531" type="curve" smooth="yes"/>
      <point x="259" y="590"/>
      <point x="196" y="604"/>
      <point x="111" y="604" type="curve" smooth="yes"/>
      <point x="72" y="604"/>
      <point x="-2" y="557"/>
      <point x="1" y="412" type="curve" smooth="yes"/>
      <point x="2" y="374"/>
      <point x="42" y="318"/>
      <point x="104" y="232" type="curve" smooth="yes"/>
      <point x="137" y="186"/>
      <point x="177" y="132"/>
      <point x="179" y="102" type="curve" smooth="yes"/>
      <point x="181" y="70"/>
      <point x="159" y="40"/>
      <point x="125" y="39" type="curve" smooth="yes"/>
      <point x="110" y="38"/>
      <point x="86" y="42"/>
      <point x="84" y="64" type="curve" smooth="yes"/>
      <point x="81" y="94"/>
      <point x="104" y="96"/>
      <point x="104" y="116" type="curve" smooth="yes"/>
      <point x="104" y="140"/>
      <point x="83" y="151"/>
      <point x="45" y="152" type="curve" smooth="yes"/>
      <point x="19" y="153"/>
      <point x="2" y="138"/>
      <point x="2" y="111" type="curve" smooth="yes"/>
      <point x="2" y="66"/>
      <point x="30" y="-10"/>
    </contour>
  </outline>
</glyph>
<glyph name="t" format="2">
  <advance width="170"/>
  <unicode hex="0074"/>
  <outline>
    <contour>
      <point x="16" y="9" type="curve" smooth="yes"/>
      <point x="16" y="1"/>
      <point x="23" y="-4"/>
      <point x="33" y="-4" type="curve" smooth="yes"/>
      <point x="43" y="-4"/>
      <point x="67" y="0"/>
      <point x="80" y="0" type="curve" smooth="yes"/>
      <point x="104" y="0"/>
      <point x="118" y="-4"/>
      <point x="134" y="-4" type="curve" smooth="yes"/>
      <point x="148" y="-4"/>
      <point x="152" y="4"/>
      <point x="152" y="11" type="curve" smooth="yes"/>
      <point x="152" y="20"/>
      <point x="139" y="29"/>
      <point x="138" y="37" type="curve" smooth="yes"/>
      <point x="144" y="569" type="line" smooth="yes"/>
      <point x="144" y="584"/>
      <point x="160" y="584"/>
      <point x="160" y="600" type="curve" smooth="yes"/>
      <point x="160" y="605"/>
      <point x="158" y="610"/>
      <point x="151" y="610" type="curve" smooth="yes"/>
      <point x="99" y="610"/>
      <point x="103" y="621"/>
      <point x="103" y="631" type="curve" smooth="yes"/>
      <point x="103" y="651"/>
      <point x="141" y="659"/>
      <point x="141" y="684" type="curve" smooth="yes"/>
      <point x="141" y="704"/>
      <point x="131" y="710"/>
      <point x="109" y="710" type="curve" smooth="yes"/>
      <point x="66" y="710"/>
      <point x="89" y="610"/>
      <point x="20" y="610" type="curve" smooth="yes"/>
      <point x="12" y="610"/>
      <point x="5" y="606"/>
      <point x="5" y="600" type="curve" smooth="yes"/>
      <point x="5" y="584"/>
      <point x="23" y="585"/>
      <point x="23" y="567" type="curve" smooth="yes"/>
      <point x="27" y="30" type="line" smooth="yes"/>
      <point x="27" y="24"/>
      <point x="16" y="13"/>
    </contour>
  </outline>
</glyph>
<glyph name="u" format="2">
  <advance width="300"/>
  <unicode hex="0075"/>
  <outline>
    <contour>
      <point x="22" y="-10" type="curve" smooth="yes"/>
      <point x="34" y="-10"/>
      <point x="147" y="12"/>
      <point x="160" y="11" type="curve" smooth="yes"/>
      <point x="173" y="10"/>
      <point x="165" y="3"/>
      <point x="179" y="0" type="curve" smooth="yes"/>
      <point x="193" y="-3"/>
      <point x="216" y="-4"/>
      <point x="232" y="-6" type="curve" smooth="yes"/>
      <point x="248" y="-8"/>
      <point x="287" y="-4"/>
      <point x="293" y="-1" type="curve" smooth="yes"/>
      <point x="299" y="2"/>
      <point x="281" y="227"/>
      <point x="286" y="298" type="curve" smooth="yes"/>
      <point x="291" y="369"/>
      <point x="297" y="594"/>
      <point x="284" y="597" type="curve" smooth="yes"/>
      <point x="271" y="600"/>
      <point x="184" y="603"/>
      <point x="178" y="598" type="curve" smooth="yes"/>
      <point x="172" y="593"/>
      <point x="174" y="572"/>
      <point x="180" y="538" type="curve" smooth="yes"/>
      <point x="186" y="504"/>
      <point x="195" y="51"/>
      <point x="190" y="42" type="curve" smooth="yes"/>
      <point x="185" y="33"/>
      <point x="168" y="36"/>
      <point x="154" y="43" type="curve" smooth="yes"/>
      <point x="140" y="50"/>
      <point x="102" y="315"/>
      <point x="101" y="346" type="curve" smooth="yes"/>
      <point x="100" y="377"/>
      <point x="114" y="586"/>
      <point x="103" y="591" type="curve" smooth="yes"/>
      <point x="92" y="596"/>
      <point x="77" y="602"/>
      <point x="57" y="600" type="curve" smooth="yes"/>
      <point x="37" y="598"/>
      <point x="9" y="607"/>
      <point x="9" y="594" type="curve" smooth="yes"/>
      <point x="9" y="581"/>
      <point x="12" y="290"/>
      <point x="18" y="279" type="curve" smooth="yes"/>
      <point x="24" y="268"/>
      <point x="19" y="-10"/>
    </contour>
  </outline>
</glyph>
